<svg width="187" height="13" viewBox="0 0 187 13" fill="none" xmlns="http://www.w3.org/2000/svg">
<path d="M0.278409 12V0.363636H4.53977C5.36553 0.363636 6.04924 0.5 6.59091 0.772727C7.13258 1.04167 7.53788 1.4072 7.80682 1.86932C8.07576 2.32765 8.21023 2.8447 8.21023 3.42045C8.21023 3.9053 8.12121 4.31439 7.94318 4.64773C7.76515 4.97727 7.52652 5.24242 7.22727 5.44318C6.93182 5.64015 6.60606 5.78409 6.25 5.875V5.98864C6.63636 6.00758 7.01326 6.13258 7.38068 6.36364C7.75189 6.59091 8.05871 6.91477 8.30114 7.33523C8.54356 7.75568 8.66477 8.26705 8.66477 8.86932C8.66477 9.46402 8.52462 9.99811 8.24432 10.4716C7.9678 10.9413 7.53977 11.3144 6.96023 11.5909C6.38068 11.8636 5.64015 12 4.73864 12H0.278409ZM2.03409 10.4943H4.56818C5.40909 10.4943 6.01136 10.3314 6.375 10.0057C6.73864 9.67992 6.92045 9.27273 6.92045 8.78409C6.92045 8.41667 6.82765 8.07955 6.64205 7.77273C6.45644 7.46591 6.19129 7.22159 5.84659 7.03977C5.50568 6.85795 5.10038 6.76705 4.63068 6.76705H2.03409V10.4943ZM2.03409 5.39773H4.38636C4.7803 5.39773 5.13447 5.32197 5.44886 5.17045C5.76705 5.01894 6.01894 4.80682 6.20455 4.53409C6.39394 4.25758 6.48864 3.93182 6.48864 3.55682C6.48864 3.07576 6.32008 2.67235 5.98295 2.34659C5.64583 2.02083 5.12879 1.85795 4.43182 1.85795H2.03409V5.39773ZM13.1428 0.363636V12H11.3872V0.363636H13.1428ZM24.2147 4.03977C24.1048 3.69508 23.9571 3.38636 23.7715 3.11364C23.5897 2.83712 23.3719 2.60227 23.1181 2.40909C22.8643 2.21212 22.5745 2.0625 22.2488 1.96023C21.9268 1.85795 21.5726 1.80682 21.1863 1.80682C20.5309 1.80682 19.94 1.97538 19.4135 2.3125C18.887 2.64962 18.4703 3.14394 18.1635 3.79545C17.8605 4.44318 17.709 5.23674 17.709 6.17614C17.709 7.11932 17.8624 7.91667 18.1692 8.56818C18.476 9.2197 18.8965 9.71402 19.4306 10.0511C19.9647 10.3883 20.5726 10.5568 21.2544 10.5568C21.887 10.5568 22.4381 10.428 22.9078 10.1705C23.3813 9.91288 23.7469 9.54924 24.0044 9.07955C24.2658 8.60606 24.3965 8.04924 24.3965 7.40909L24.851 7.49432H21.5215V6.04545H26.0953V7.36932C26.0953 8.34659 25.887 9.19508 25.4703 9.91477C25.0575 10.6307 24.4855 11.1837 23.7544 11.5739C23.0272 11.964 22.1938 12.1591 21.2544 12.1591C20.2014 12.1591 19.2772 11.9167 18.4817 11.4318C17.69 10.947 17.0726 10.2595 16.6294 9.36932C16.1863 8.47538 15.9647 7.41477 15.9647 6.1875C15.9647 5.25947 16.0934 4.42614 16.351 3.6875C16.6086 2.94886 16.9703 2.32197 17.4363 1.80682C17.9059 1.28788 18.4571 0.892045 19.0897 0.619318C19.726 0.342803 20.4211 0.204545 21.1749 0.204545C21.8037 0.204545 22.3889 0.297348 22.9306 0.482954C23.476 0.66856 23.9609 0.931818 24.3851 1.27273C24.8131 1.61364 25.1673 2.01894 25.4476 2.48864C25.7279 2.95455 25.9173 3.47159 26.0158 4.03977H24.2147ZM35.5941 0.363636V12H33.8384V0.363636H35.5941ZM42.558 12H38.7909V0.363636H42.6773C43.8174 0.363636 44.7966 0.596591 45.6148 1.0625C46.433 1.52462 47.0598 2.18939 47.4955 3.05682C47.9348 3.92045 48.1545 4.95644 48.1545 6.16477C48.1545 7.37689 47.933 8.41856 47.4898 9.28977C47.0504 10.161 46.414 10.8314 45.5807 11.3011C44.7473 11.767 43.7398 12 42.558 12ZM40.5466 10.4659H42.4614C43.3477 10.4659 44.0845 10.2992 44.6716 9.96591C45.2587 9.62879 45.6981 9.14205 45.9898 8.50568C46.2814 7.86553 46.4273 7.08523 46.4273 6.16477C46.4273 5.25189 46.2814 4.47727 45.9898 3.84091C45.7019 3.20455 45.272 2.72159 44.7 2.39205C44.128 2.0625 43.4178 1.89773 42.5693 1.89773H40.5466V10.4659ZM50.9778 12V0.363636H58.2732V1.875H52.7335V5.42045H57.8926V6.92614H52.7335V10.4886H58.3414V12H50.9778ZM62.2414 12H60.3777L64.5652 0.363636H66.5936L70.7811 12H68.9175L65.6277 2.47727H65.5368L62.2414 12ZM62.5539 7.44318H68.5993V8.92045H62.5539V7.44318ZM79.3544 3.42045C79.2938 2.88258 79.0438 2.46591 78.6044 2.17045C78.165 1.87121 77.612 1.72159 76.9453 1.72159C76.468 1.72159 76.0551 1.79735 75.7067 1.94886C75.3582 2.09659 75.0873 2.30114 74.8942 2.5625C74.7048 2.82008 74.6101 3.11364 74.6101 3.44318C74.6101 3.7197 74.6745 3.95833 74.8032 4.15909C74.9358 4.35985 75.1082 4.52841 75.3203 4.66477C75.5362 4.79735 75.7673 4.90909 76.0135 5C76.2597 5.08712 76.4964 5.15909 76.7237 5.21591L77.8601 5.51136C78.2313 5.60227 78.612 5.72538 79.0021 5.88068C79.3923 6.03598 79.754 6.24053 80.0873 6.49432C80.4207 6.74811 80.6896 7.0625 80.8942 7.4375C81.1025 7.8125 81.2067 8.26136 81.2067 8.78409C81.2067 9.44318 81.0362 10.0284 80.6953 10.5398C80.3582 11.0511 79.8676 11.4545 79.2237 11.75C78.5835 12.0455 77.8089 12.1932 76.8998 12.1932C76.0286 12.1932 75.2748 12.0549 74.6385 11.7784C74.0021 11.5019 73.504 11.1098 73.1442 10.6023C72.7843 10.0909 72.5854 9.48485 72.5476 8.78409H74.3089C74.343 9.20455 74.4794 9.55492 74.718 9.83523C74.9604 10.1117 75.2692 10.3182 75.6442 10.4545C76.0229 10.5871 76.4377 10.6534 76.8885 10.6534C77.3847 10.6534 77.826 10.5758 78.2123 10.4205C78.6025 10.2614 78.9093 10.0417 79.1328 9.76136C79.3563 9.47727 79.468 9.14583 79.468 8.76705C79.468 8.42235 79.3695 8.14015 79.1726 7.92045C78.9794 7.70076 78.7161 7.51894 78.3828 7.375C78.0532 7.23106 77.6801 7.10417 77.2635 6.99432L75.8885 6.61932C74.9567 6.36553 74.218 5.99242 73.6726 5.5C73.1309 5.00758 72.8601 4.35606 72.8601 3.54545C72.8601 2.875 73.0419 2.28977 73.4055 1.78977C73.7692 1.28977 74.2616 0.901515 74.8828 0.625C75.504 0.344697 76.2048 0.204545 76.9851 0.204545C77.7729 0.204545 78.468 0.342803 79.0703 0.619318C79.6763 0.895833 80.1536 1.27652 80.5021 1.76136C80.8506 2.24242 81.0324 2.79545 81.0476 3.42045H79.3544ZM138.372 12.1648C137.963 12.1648 137.612 12.0208 137.321 11.733C137.033 11.4451 136.891 11.0966 136.895 10.6875C136.891 10.286 137.033 9.94318 137.321 9.65909C137.612 9.37121 137.963 9.22727 138.372 9.22727C138.758 9.22727 139.099 9.37121 139.395 9.65909C139.694 9.94318 139.845 10.286 139.849 10.6875C139.845 10.9602 139.773 11.2083 139.633 11.4318C139.497 11.6553 139.317 11.8333 139.094 11.9659C138.874 12.0985 138.633 12.1648 138.372 12.1648ZM147.437 12V10.7273L151.375 6.64773C151.795 6.20455 152.142 5.81629 152.415 5.48295C152.691 5.14583 152.898 4.82576 153.034 4.52273C153.17 4.2197 153.239 3.89773 153.239 3.55682C153.239 3.17045 153.148 2.83712 152.966 2.55682C152.784 2.27273 152.536 2.05492 152.222 1.90341C151.907 1.74811 151.553 1.67045 151.159 1.67045C150.742 1.67045 150.379 1.75568 150.068 1.92614C149.758 2.09659 149.519 2.33712 149.352 2.64773C149.186 2.95833 149.102 3.32197 149.102 3.73864H147.426C147.426 3.0303 147.589 2.41098 147.915 1.88068C148.24 1.35038 148.687 0.939394 149.256 0.647727C149.824 0.352272 150.47 0.204545 151.193 0.204545C151.924 0.204545 152.568 0.350378 153.125 0.642045C153.686 0.929924 154.123 1.32386 154.437 1.82386C154.752 2.32008 154.909 2.88068 154.909 3.50568C154.909 3.9375 154.828 4.35985 154.665 4.77273C154.506 5.18561 154.227 5.64583 153.829 6.15341C153.432 6.6572 152.879 7.26894 152.17 7.98864L149.858 10.4091V10.4943H155.097V12H147.437ZM161.941 12.1932C161.043 12.1894 160.276 11.9527 159.64 11.483C159.004 11.0133 158.517 10.3295 158.18 9.43182C157.843 8.53409 157.674 7.45265 157.674 6.1875C157.674 4.92614 157.843 3.84848 158.18 2.95455C158.521 2.06061 159.009 1.37879 159.646 0.909091C160.286 0.439394 161.051 0.204545 161.941 0.204545C162.831 0.204545 163.594 0.441287 164.231 0.914772C164.867 1.38447 165.354 2.06629 165.691 2.96023C166.032 3.85038 166.202 4.92614 166.202 6.1875C166.202 7.45644 166.034 8.53977 165.697 9.4375C165.36 10.3314 164.873 11.0152 164.237 11.4886C163.6 11.9583 162.835 12.1932 161.941 12.1932ZM161.941 10.6761C162.729 10.6761 163.344 10.2917 163.788 9.52273C164.235 8.75379 164.458 7.64205 164.458 6.1875C164.458 5.22159 164.356 4.4053 164.151 3.73864C163.951 3.06818 163.661 2.56061 163.282 2.21591C162.907 1.86742 162.46 1.69318 161.941 1.69318C161.157 1.69318 160.541 2.07954 160.094 2.85227C159.648 3.625 159.422 4.73674 159.418 6.1875C159.418 7.1572 159.519 7.97727 159.719 8.64773C159.924 9.31439 160.214 9.82008 160.589 10.1648C160.964 10.5057 161.415 10.6761 161.941 10.6761ZM168.858 12V10.7273L172.796 6.64773C173.216 6.20455 173.563 5.81629 173.835 5.48295C174.112 5.14583 174.318 4.82576 174.455 4.52273C174.591 4.2197 174.659 3.89773 174.659 3.55682C174.659 3.17045 174.568 2.83712 174.386 2.55682C174.205 2.27273 173.957 2.05492 173.642 1.90341C173.328 1.74811 172.974 1.67045 172.58 1.67045C172.163 1.67045 171.799 1.75568 171.489 1.92614C171.178 2.09659 170.94 2.33712 170.773 2.64773C170.606 2.95833 170.523 3.32197 170.523 3.73864H168.847C168.847 3.0303 169.01 2.41098 169.335 1.88068C169.661 1.35038 170.108 0.939394 170.676 0.647727C171.244 0.352272 171.89 0.204545 172.614 0.204545C173.345 0.204545 173.989 0.350378 174.546 0.642045C175.106 0.929924 175.544 1.32386 175.858 1.82386C176.172 2.32008 176.33 2.88068 176.33 3.50568C176.33 3.9375 176.248 4.35985 176.085 4.77273C175.926 5.18561 175.648 5.64583 175.25 6.15341C174.852 6.6572 174.299 7.26894 173.591 7.98864L171.279 10.4091V10.4943H176.517V12H168.858ZM179.311 12V10.7273L183.248 6.64773C183.669 6.20455 184.015 5.81629 184.288 5.48295C184.564 5.14583 184.771 4.82576 184.907 4.52273C185.044 4.2197 185.112 3.89773 185.112 3.55682C185.112 3.17045 185.021 2.83712 184.839 2.55682C184.657 2.27273 184.409 2.05492 184.095 1.90341C183.78 1.74811 183.426 1.67045 183.032 1.67045C182.615 1.67045 182.252 1.75568 181.941 1.92614C181.631 2.09659 181.392 2.33712 181.225 2.64773C181.059 2.95833 180.975 3.32197 180.975 3.73864H179.299C179.299 3.0303 179.462 2.41098 179.788 1.88068C180.114 1.35038 180.561 0.939394 181.129 0.647727C181.697 0.352272 182.343 0.204545 183.066 0.204545C183.797 0.204545 184.441 0.350378 184.998 0.642045C185.559 0.929924 185.996 1.32386 186.311 1.82386C186.625 2.32008 186.782 2.88068 186.782 3.50568C186.782 3.9375 186.701 4.35985 186.538 4.77273C186.379 5.18561 186.1 5.64583 185.703 6.15341C185.305 6.6572 184.752 7.26894 184.044 7.98864L181.731 10.4091V10.4943H186.97V12H179.311Z" fill="#212529"/>
<path d="M98.9838 4.57955H96.1429C96.105 4.28788 96.0274 4.02462 95.9099 3.78977C95.7925 3.55492 95.6372 3.35417 95.444 3.1875C95.2509 3.02083 95.0217 2.89394 94.7565 2.80682C94.4952 2.71591 94.2054 2.67045 93.8872 2.67045C93.3228 2.67045 92.8361 2.80871 92.427 3.08523C92.0217 3.36174 91.7092 3.76136 91.4895 4.28409C91.2736 4.80682 91.1656 5.43939 91.1656 6.18182C91.1656 6.95455 91.2755 7.60227 91.4952 8.125C91.7187 8.64394 92.0312 9.03598 92.4327 9.30114C92.838 9.5625 93.3171 9.69318 93.8702 9.69318C94.1808 9.69318 94.463 9.65341 94.7168 9.57386C94.9743 9.49432 95.1997 9.37879 95.3929 9.22727C95.5899 9.07197 95.7509 8.88447 95.8759 8.66477C96.0046 8.44129 96.0937 8.18939 96.1429 7.90909L98.9838 7.92614C98.9346 8.44129 98.7849 8.94886 98.5349 9.44886C98.2887 9.94886 97.9497 10.4053 97.5179 10.8182C97.0861 11.2273 96.5596 11.553 95.9384 11.7955C95.3209 12.0379 94.6126 12.1591 93.8134 12.1591C92.7603 12.1591 91.8171 11.928 90.9838 11.4659C90.1543 11 89.499 10.322 89.0179 9.43182C88.5368 8.54167 88.2963 7.45833 88.2963 6.18182C88.2963 4.90152 88.5406 3.81629 89.0293 2.92614C89.5179 2.03598 90.1789 1.35985 91.0122 0.897727C91.8456 0.435606 92.7793 0.204545 93.8134 0.204545C94.5179 0.204545 95.1694 0.30303 95.7679 0.5C96.3664 0.693181 96.8929 0.977272 97.3474 1.35227C97.802 1.72348 98.1713 2.17992 98.4554 2.72159C98.7395 3.26326 98.9156 3.88258 98.9838 4.57955ZM112.216 6.18182C112.216 7.46212 111.97 8.54735 111.478 9.4375C110.985 10.3277 110.318 11.0038 109.478 11.4659C108.64 11.928 107.701 12.1591 106.659 12.1591C105.614 12.1591 104.673 11.9261 103.835 11.4602C102.998 10.9943 102.334 10.3182 101.841 9.43182C101.353 8.54167 101.108 7.45833 101.108 6.18182C101.108 4.90152 101.353 3.81629 101.841 2.92614C102.334 2.03598 102.998 1.35985 103.835 0.897727C104.673 0.435606 105.614 0.204545 106.659 0.204545C107.701 0.204545 108.64 0.435606 109.478 0.897727C110.318 1.35985 110.985 2.03598 111.478 2.92614C111.97 3.81629 112.216 4.90152 112.216 6.18182ZM109.341 6.18182C109.341 5.42424 109.233 4.78409 109.017 4.26136C108.805 3.73864 108.498 3.3428 108.097 3.07386C107.699 2.80492 107.22 2.67045 106.659 2.67045C106.103 2.67045 105.623 2.80492 105.222 3.07386C104.82 3.3428 104.512 3.73864 104.296 4.26136C104.084 4.78409 103.978 5.42424 103.978 6.18182C103.978 6.93939 104.084 7.57955 104.296 8.10227C104.512 8.625 104.82 9.02083 105.222 9.28977C105.623 9.55871 106.103 9.69318 106.659 9.69318C107.22 9.69318 107.699 9.55871 108.097 9.28977C108.498 9.02083 108.805 8.625 109.017 8.10227C109.233 7.57955 109.341 6.93939 109.341 6.18182ZM124.402 0.363636V12H122.015L117.385 5.28409H117.311V12H114.498V0.363636H116.919L121.498 7.06818H121.595V0.363636H124.402ZM126.81 12V0.363636H134.753V2.64773H129.623V5.03409H134.248V7.32386H129.623V12H126.81Z" fill="url(#paint0_linear_79_2967)"/>
<defs>
<linearGradient id="paint0_linear_79_2967" x1="94" y1="-3" x2="94" y2="16" gradientUnits="userSpaceOnUse">
<stop stop-color="#EA5B0C"/>
<stop offset="1" stop-color="#E71D73"/>
</linearGradient>
</defs>
</svg>
