<svg width="48" height="48" viewBox="0 0 48 48" fill="none" xmlns="http://www.w3.org/2000/svg">
<rect width="48" height="48" rx="16" fill="#FDEFE7"/>
<path d="M34 27C34 30.87 30.87 34 27 34L28.05 32.25" stroke="url(#paint0_linear_77_2917)" stroke-width="1.5" stroke-linecap="round" stroke-linejoin="round"/>
<path d="M14 21C14 17.13 17.13 14 21 14L19.95 15.75" stroke="url(#paint1_linear_77_2917)" stroke-width="1.5" stroke-linecap="round" stroke-linejoin="round"/>
<path d="M25.7002 16.45L29.6802 18.75L33.6202 16.46" stroke="url(#paint2_linear_77_2917)" stroke-width="1.5" stroke-linecap="round" stroke-linejoin="round"/>
<path d="M29.6802 22.82V18.74" stroke="url(#paint3_linear_77_2917)" stroke-width="1.5" stroke-linecap="round" stroke-linejoin="round"/>
<path d="M28.7401 14.21L26.3401 15.54C25.8001 15.84 25.3501 16.5999 25.3501 17.2199V19.76C25.3501 20.38 25.7901 21.14 26.3401 21.44L28.7401 22.77C29.2501 23.06 30.0901 23.06 30.6101 22.77L33.0101 21.44C33.5501 21.14 34.0001 20.38 34.0001 19.76V17.2199C34.0001 16.5999 33.5601 15.84 33.0101 15.54L30.6101 14.21C30.1001 13.93 29.2601 13.93 28.7401 14.21Z" stroke="url(#paint4_linear_77_2917)" stroke-width="1.5" stroke-linecap="round" stroke-linejoin="round"/>
<path d="M14.3501 27.45L18.3201 29.75L22.2701 27.46" stroke="url(#paint5_linear_77_2917)" stroke-width="1.5" stroke-linecap="round" stroke-linejoin="round"/>
<path d="M18.3201 33.82V29.74" stroke="url(#paint6_linear_77_2917)" stroke-width="1.5" stroke-linecap="round" stroke-linejoin="round"/>
<path d="M17.39 25.21L14.99 26.54C14.45 26.84 14 27.5999 14 28.2199V30.76C14 31.38 14.44 32.14 14.99 32.44L17.39 33.77C17.9 34.06 18.74 34.06 19.26 33.77L21.66 32.44C22.2 32.14 22.65 31.38 22.65 30.76V28.2199C22.65 27.5999 22.21 26.84 21.66 26.54L19.26 25.21C18.74 24.93 17.9 24.93 17.39 25.21Z" stroke="url(#paint7_linear_77_2917)" stroke-width="1.5" stroke-linecap="round" stroke-linejoin="round"/>
<defs>
<linearGradient id="paint0_linear_77_2917" x1="25.4069" y1="27" x2="34.1626" y2="27.7746" gradientUnits="userSpaceOnUse">
<stop stop-color="#EA5B0C"/>
<stop offset="1" stop-color="#E71D73"/>
</linearGradient>
<linearGradient id="paint1_linear_77_2917" x1="12.4069" y1="14" x2="21.1626" y2="14.7746" gradientUnits="userSpaceOnUse">
<stop stop-color="#EA5B0C"/>
<stop offset="1" stop-color="#E71D73"/>
</linearGradient>
<linearGradient id="paint2_linear_77_2917" x1="23.8977" y1="16.45" x2="33.0339" y2="19.2333" gradientUnits="userSpaceOnUse">
<stop stop-color="#EA5B0C"/>
<stop offset="1" stop-color="#E71D73"/>
</linearGradient>
<linearGradient id="paint3_linear_77_2917" x1="29.4526" y1="18.74" x2="30.7126" y2="18.7673" gradientUnits="userSpaceOnUse">
<stop stop-color="#EA5B0C"/>
<stop offset="1" stop-color="#E71D73"/>
</linearGradient>
<linearGradient id="paint4_linear_77_2917" x1="23.3815" y1="14" x2="34.2073" y2="14.9218" gradientUnits="userSpaceOnUse">
<stop stop-color="#EA5B0C"/>
<stop offset="1" stop-color="#E71D73"/>
</linearGradient>
<linearGradient id="paint5_linear_77_2917" x1="12.5476" y1="27.45" x2="21.6838" y2="30.2333" gradientUnits="userSpaceOnUse">
<stop stop-color="#EA5B0C"/>
<stop offset="1" stop-color="#E71D73"/>
</linearGradient>
<linearGradient id="paint6_linear_77_2917" x1="18.0925" y1="29.74" x2="19.3525" y2="29.7673" gradientUnits="userSpaceOnUse">
<stop stop-color="#EA5B0C"/>
<stop offset="1" stop-color="#E71D73"/>
</linearGradient>
<linearGradient id="paint7_linear_77_2917" x1="12.0314" y1="25" x2="22.8572" y2="25.9218" gradientUnits="userSpaceOnUse">
<stop stop-color="#EA5B0C"/>
<stop offset="1" stop-color="#E71D73"/>
</linearGradient>
</defs>
</svg>
