<svg width="70" height="70" viewBox="0 0 70 70" fill="none" xmlns="http://www.w3.org/2000/svg">
<path d="M67.3246 14.8631C64.8806 15.925 62.2948 16.6246 59.6488 16.9398C62.4295 15.3115 64.5207 12.7247 65.5302 9.66439C62.9011 11.2017 60.0296 12.2804 57.0386 12.8542C55.7791 11.5342 54.2643 10.4841 52.5863 9.76775C50.9084 9.05139 49.1023 8.68372 47.2778 8.6871C39.891 8.6871 33.9132 14.578 33.9132 21.8399C33.908 22.85 34.0237 23.8571 34.258 24.8397C28.9612 24.5914 23.7745 23.2401 19.0298 20.8725C14.2851 18.5048 10.0868 15.1728 6.70361 11.0896C5.5167 13.0905 4.889 15.3735 4.8861 17.7C4.8861 22.2607 7.26556 26.292 10.8585 28.6538C8.72978 28.6033 6.64469 28.0399 4.78023 27.0114V27.1743C4.78023 33.5539 9.39525 38.8612 15.5034 40.0692C14.3547 40.3754 13.1711 40.5306 11.9824 40.5307C11.1389 40.5322 10.2973 40.4504 9.46991 40.2864C11.168 45.5122 16.1101 49.3129 21.9644 49.4214C17.2074 53.0876 11.367 55.0691 5.36118 55.0545C4.29513 55.0529 3.23008 54.9894 2.17139 54.8645C8.2811 58.7658 15.3832 60.8294 22.6322 60.8097C47.2493 60.8097 60.698 40.7615 60.698 23.3737C60.698 22.8036 60.6831 22.2335 60.6559 21.677C63.2662 19.8202 65.5245 17.5128 67.3246 14.8631V14.8631Z" fill="url(#paint0_linear_496_397)"/>
<defs>
<linearGradient id="paint0_linear_496_397" x1="-12.6566" y1="8.68707" x2="68.484" y2="17.6601" gradientUnits="userSpaceOnUse">
<stop stop-color="#EA5B0C"/>
<stop offset="1" stop-color="#E71D73"/>
</linearGradient>
</defs>
</svg>
