<svg width="221" height="46" viewBox="0 0 221 46" fill="none" xmlns="http://www.w3.org/2000/svg">
<g clip-path="url(#clip0_99_54)">
<path d="M43.9602 30.4626H31.8872C31.505 30.4624 31.1373 30.3169 30.8585 30.0556C30.5797 29.7943 30.4107 29.4367 30.3859 29.0554C30.3839 29.0227 30.3839 28.99 30.3859 28.9574C30.3839 28.9261 30.3839 28.8946 30.3859 28.8633V16.7942C30.361 16.4129 30.192 16.0553 29.9132 15.794C29.6344 15.5327 29.2667 15.3872 28.8846 15.387H16.7998C16.4475 15.3864 16.1066 15.2627 15.8359 15.0372C15.5653 14.8117 15.3821 14.4986 15.3181 14.1522C15.3162 14.117 15.3162 14.0817 15.3181 14.0464C15.3141 13.9916 15.3141 13.9366 15.3181 13.8818C15.3141 13.8257 15.3141 13.7693 15.3181 13.7132C15.3159 13.6793 15.3159 13.6452 15.3181 13.6113V1.69506C15.2903 1.31725 15.1204 0.964013 14.8425 0.706521C14.5647 0.449029 14.1995 0.306424 13.8207 0.307443H1.74376C1.35871 0.303733 0.986951 0.448122 0.705345 0.710759C0.42374 0.973396 0.253819 1.3342 0.230713 1.71858L0.230713 14.0856C0.279158 14.4462 0.456892 14.7769 0.73087 15.0163C1.00485 15.2556 1.35643 15.3874 1.72024 15.387H13.7933C14.1743 15.3828 14.5428 15.5232 14.8243 15.78C15.1059 16.0368 15.2795 16.3909 15.3103 16.7707C15.3122 16.8085 15.3122 16.8465 15.3103 16.8844C15.3103 16.9235 15.3103 16.9627 15.3103 17.0019V29.1534C15.3587 29.514 15.5364 29.8447 15.8104 30.084C16.0844 30.3234 16.436 30.4551 16.7998 30.4548H28.8807C29.0783 30.4548 29.2741 30.4937 29.4567 30.5693C29.6393 30.645 29.8052 30.7559 29.945 30.8956C30.0848 31.0354 30.1956 31.2013 30.2713 31.3839C30.3469 31.5666 30.3859 31.7623 30.3859 31.96V44.2329C30.436 44.5924 30.6143 44.9217 30.888 45.1602C31.1617 45.3986 31.5124 45.5301 31.8754 45.5304H43.9563C44.3548 45.5304 44.7371 45.3723 45.0192 45.0909C45.3014 44.8095 45.4604 44.4276 45.4615 44.0291V31.8776C45.4385 31.4949 45.2704 31.1354 44.9914 30.8725C44.7124 30.6095 44.3436 30.4629 43.9602 30.4626V30.4626Z" fill="#0F35F2"/>
<path d="M25.9407 33.4771H16.737C16.3509 33.4962 15.9869 33.6632 15.7205 33.9434C15.4541 34.2236 15.3058 34.5956 15.3063 34.9823V44.037C15.3073 44.4356 15.4664 44.8174 15.7485 45.0988C16.0307 45.3803 16.413 45.5383 16.8115 45.5383H25.8663C26.2644 45.5383 26.6463 45.3802 26.9278 45.0986C27.2094 44.8171 27.3676 44.4352 27.3676 44.037V34.9823C27.3681 34.5963 27.2203 34.2248 26.9548 33.9447C26.6892 33.6646 26.3262 33.4972 25.9407 33.4771V33.4771Z" fill="#0F35F2"/>
<path d="M44.0346 15.3872H34.8309C34.4454 15.4063 34.082 15.5727 33.8157 15.8521C33.5494 16.1315 33.4007 16.5025 33.4001 16.8885V25.9433C33.4001 26.3425 33.5587 26.7253 33.841 27.0076C34.1233 27.2899 34.5061 27.4485 34.9054 27.4485H43.9562C44.154 27.449 44.35 27.4104 44.5328 27.335C44.7157 27.2595 44.8818 27.1486 45.0217 27.0088C45.1616 26.8689 45.2724 26.7028 45.3479 26.5199C45.4234 26.3371 45.4619 26.1411 45.4614 25.9433V16.8885C45.4619 16.5029 45.314 16.1319 45.0484 15.8524C44.7827 15.5729 44.4197 15.4063 44.0346 15.3872V15.3872Z" fill="#0F35F2"/>
<path d="M10.8652 18.4016H1.65753C1.27206 18.4217 0.909053 18.5891 0.643511 18.8693C0.377969 19.1494 0.23019 19.5208 0.230714 19.9068V44.0372C0.231752 44.4357 0.390794 44.8176 0.672964 45.099C0.955133 45.3805 1.3374 45.5385 1.73592 45.5385H10.7868C10.9843 45.539 11.1799 45.5006 11.3625 45.4254C11.5451 45.3501 11.7111 45.2396 11.8509 45.1002C11.9907 44.9607 12.1016 44.795 12.1773 44.6126C12.253 44.4302 12.292 44.2347 12.292 44.0372V19.9068C12.2925 19.5208 12.1447 19.1494 11.8792 18.8693C11.6137 18.5891 11.2506 18.4217 10.8652 18.4016V18.4016Z" fill="#0F35F2"/>
<path d="M43.9564 0.307622H19.8299C19.4443 0.307148 19.0733 0.455055 18.7938 0.72069C18.5143 0.986324 18.3477 1.34932 18.3286 1.73444V10.9421C18.3477 11.3272 18.5143 11.6902 18.7938 11.9558C19.0733 12.2215 19.4443 12.3694 19.8299 12.3689H43.9603C44.1578 12.3694 44.3534 12.331 44.536 12.2557C44.7186 12.1805 44.8846 12.07 45.0244 11.9306C45.1642 11.7911 45.2752 11.6254 45.3509 11.443C45.4266 11.2606 45.4655 11.0651 45.4655 10.8676V1.81283C45.4655 1.61483 45.4264 1.41878 45.3506 1.23591C45.2747 1.05303 45.1634 0.886923 45.0233 0.7471C44.8831 0.607277 44.7167 0.496486 44.5336 0.421073C44.3505 0.34566 44.1544 0.307107 43.9564 0.307622V0.307622Z" fill="#0F35F2"/>
<path d="M73.5744 6.49316L67.9848 16.8924C67.4752 17.8332 67.3184 18.2997 66.9695 19.0052C66.6559 18.2997 66.3816 17.6764 65.9504 16.8924L60.3215 6.49316H54.7162L64.3864 23.8266V35.0726H69.392V23.8266L79.0191 6.49316H73.5744Z" fill="#021128"/>
<path d="M85.0282 15.2029C79.0465 15.2029 74.7073 19.354 74.7073 25.3944C74.7073 31.4348 79.0465 35.5585 85.0282 35.5585C91.0098 35.5585 95.349 31.3956 95.349 25.3944C95.349 19.3932 91.0098 15.2029 85.0282 15.2029ZM85.0282 31.2741C81.7629 31.2741 79.4777 28.8948 79.4777 25.3944C79.4777 21.894 81.7629 19.4716 85.0282 19.4716C88.2934 19.4716 90.5786 21.8666 90.5786 25.3944C90.5786 28.9222 88.313 31.2741 85.0282 31.2741Z" fill="#021128"/>
<path d="M111.573 18.4174C110.436 16.3477 108.171 15.1326 105.278 15.1326C99.7666 15.1326 96.0898 19.3542 96.0898 24.987C96.0898 30.6198 99.6882 34.6807 105.16 34.6807C107.936 34.6807 110.323 33.5479 111.534 31.7487V34.9551C111.534 38.1615 109.421 40.2312 106.136 40.2312C103.204 40.2312 101.291 38.7455 100.978 36.2447H96.2074C96.7954 41.4032 100.586 44.5704 106.136 44.5704C112.408 44.5704 116.261 40.5447 116.261 34.0927V15.7597H111.844L111.573 18.4174ZM106.085 30.5375C102.95 30.5375 100.888 28.1111 100.888 24.8694C100.888 21.7022 102.922 19.3189 106.085 19.3189C109.409 19.3189 111.405 21.5846 111.405 24.8694C111.416 28.2287 109.382 30.5375 106.097 30.5375H106.085Z" fill="#021128"/>
<path d="M133.618 18.4174C132.485 16.3477 130.22 15.1326 127.327 15.1326C121.816 15.1326 118.139 19.3542 118.139 24.987C118.139 30.6198 121.745 34.6807 127.209 34.6807C129.985 34.6807 132.368 33.5479 133.579 31.7487V34.9551C133.579 38.1615 131.47 40.2312 128.185 40.2312C125.253 40.2312 123.337 38.7455 123.027 36.2447H118.257C118.844 41.4032 122.635 44.5704 128.185 44.5704C134.457 44.5704 138.31 40.5447 138.31 34.0927V15.7597H133.897L133.618 18.4174ZM128.131 30.5375C124.995 30.5375 122.933 28.1111 122.933 24.8694C122.933 21.7022 124.963 19.3189 128.131 19.3189C131.455 19.3189 133.45 21.5846 133.45 24.8694C133.465 28.2287 131.431 30.5375 128.146 30.5375H128.131Z" fill="#021128"/>
<path d="M149.607 15.1716C144.37 15.1716 140.929 17.9155 140.929 22.094H144.993C144.993 20.0596 146.561 18.8876 149.372 18.8876C151.798 18.8876 153.362 19.942 153.362 22.5605V22.9917L147.577 23.4346C143.002 23.7835 140.423 26.0138 140.423 29.5691C140.423 33.195 142.912 35.586 147.028 35.586C150.038 35.586 152.657 34.218 153.48 32.2268L153.829 35.0804H158.015V23.3445C158.015 17.9861 154.809 15.1716 149.607 15.1716ZM153.401 27.2525C153.401 30.2237 151.524 31.9837 148.592 31.9837C146.44 31.9837 145.268 31.1214 145.268 29.3653C145.268 27.7974 146.405 26.8213 149.372 26.5509L153.401 26.2373V27.2525Z" fill="#021128"/>
<path d="M170.327 24.0462L166.846 23.2269C165.204 22.8349 164.346 22.1333 164.346 21.0357C164.346 19.5893 165.439 18.7309 167.317 18.7309C169.194 18.7309 170.249 19.7853 170.288 21.4277H174.823C174.784 17.6764 171.852 15.156 167.513 15.156C163.056 15.156 159.85 17.4256 159.85 21.216C159.85 24.3049 161.531 25.9473 165.008 26.7273L168.489 27.5505C170.21 27.9424 170.719 28.6441 170.719 29.6201C170.719 31.0273 169.504 31.9289 167.278 31.9289C165.051 31.9289 163.836 30.8745 163.797 29.185H159.262C159.262 32.9755 162.311 35.5547 167.121 35.5547C171.93 35.5547 175.211 33.1558 175.211 29.2477C175.211 26.2765 173.573 24.7909 170.327 24.0462Z" fill="#021128"/>
<path d="M186.081 15.2029C180.099 15.2029 175.76 19.354 175.76 25.3944C175.76 31.4348 180.099 35.5585 186.081 35.5585C192.063 35.5585 196.402 31.3956 196.402 25.3944C196.402 19.3932 192.063 15.2029 186.081 15.2029ZM186.081 31.2741C182.796 31.2741 180.542 28.8948 180.542 25.3944C180.542 21.894 182.808 19.4912 186.093 19.4912C189.378 19.4912 191.632 21.8666 191.632 25.3944C191.632 28.9222 189.366 31.2741 186.081 31.2741Z" fill="#021128"/>
<path d="M216.652 15.7596V9.73875H211.901V15.7596H203.752V13.4077C203.752 11.4909 204.296 10.2405 206.448 10.2405H208.13V6.1874C207.316 6.04735 206.49 5.98175 205.664 5.99141C201.745 5.99141 199.001 8.17867 199.001 13.4195V15.7714H196.225V19.746H199.001V35.0725H203.732V19.746H211.901V35.0725H216.671V19.746H220.422V15.7596H216.652Z" fill="#021128"/>
</g>
<defs>
<clipPath id="clip0_99_54">
<rect width="220.172" height="45.2308" fill="white" transform="translate(0.230713 0.307617)"/>
</clipPath>
</defs>
</svg>
