<svg width="22" height="18" viewBox="0 0 22 18" fill="none" xmlns="http://www.w3.org/2000/svg">
<path d="M21.2538 2.27068C20.4624 2.61454 19.6251 2.84108 18.7683 2.94314C19.6687 2.41589 20.3459 1.57825 20.6727 0.587333C19.8214 1.08513 18.8916 1.4344 17.9231 1.6202C17.5153 1.19278 17.0248 0.852759 16.4815 0.6208C15.9381 0.388841 15.3533 0.26979 14.7625 0.270881C12.3707 0.270881 10.4351 2.17838 10.4351 4.52979C10.4334 4.85686 10.4709 5.18296 10.5467 5.50112C8.83158 5.42072 7.15211 4.98319 5.61577 4.21653C4.07942 3.44987 2.72001 2.37096 1.62453 1.04882C1.2402 1.69672 1.03695 2.43596 1.03601 3.18927C1.03601 4.66604 1.80649 5.97141 2.96989 6.73616C2.2806 6.71981 1.60545 6.53737 1.00173 6.20435V6.25709C1.00173 8.32282 2.49609 10.0413 4.47391 10.4325C4.10198 10.5316 3.71872 10.5819 3.33381 10.5819C3.06068 10.5824 2.78818 10.5559 2.52026 10.5028C3.0701 12.195 4.67037 13.4256 6.56601 13.4608C5.02567 14.6479 3.13454 15.2895 1.18985 15.2848C0.844657 15.2842 0.49979 15.2637 0.156982 15.2232C2.13532 16.4865 4.43499 17.1547 6.78225 17.1483C14.7533 17.1483 19.108 10.6566 19.108 5.02645C19.108 4.84185 19.1032 4.65725 19.0944 4.47705C19.9396 3.87582 20.6709 3.12866 21.2538 2.27068Z" fill="#343A40"/>
</svg>
