<svg width="21" height="21" viewBox="0 0 21 21" fill="none" xmlns="http://www.w3.org/2000/svg">
<path d="M18.6681 0.864502H2.23508C1.33715 0.864502 0.552612 1.51059 0.552612 2.39797V18.8675C0.552612 19.7597 1.33715 20.5548 2.23508 20.5548H18.6633C19.5661 20.5548 20.2429 19.7545 20.2429 18.8675V2.39797C20.2482 1.51059 19.5661 0.864502 18.6681 0.864502ZM6.65617 17.2774H3.83536V8.50681H6.65617V17.2774ZM5.34334 7.17332H5.32312C4.42035 7.17332 3.8358 6.5013 3.8358 5.66006C3.8358 4.80345 4.43574 4.14725 5.35872 4.14725C6.28171 4.14725 6.84648 4.79861 6.8667 5.66006C6.86626 6.5013 6.2817 7.17332 5.34334 7.17332ZM16.9655 17.2774H14.1446V12.4818C14.1446 11.3329 13.7341 10.5479 12.7136 10.5479C11.9339 10.5479 11.4724 11.0753 11.2671 11.5891C11.1902 11.7737 11.1696 12.0251 11.1696 12.2818V17.2774H8.34875V8.50681H11.1696V9.72734C11.5801 9.14279 12.2213 8.30155 13.7135 8.30155C15.5652 8.30155 16.9659 9.52209 16.9659 12.1535L16.9655 17.2774Z" fill="#343A40"/>
</svg>
