<svg width="22" height="22" viewBox="0 0 22 22" fill="none" xmlns="http://www.w3.org/2000/svg">
<path d="M20.4405 4.51254C19.6985 4.83495 18.9134 5.04736 18.11 5.14306C18.9543 4.64869 19.5892 3.86329 19.8957 2.93417C19.0975 3.40092 18.2256 3.72841 17.3176 3.90262C16.9352 3.50186 16.4753 3.18305 15.9658 2.96555C15.4564 2.74806 14.908 2.63643 14.3541 2.63746C12.1114 2.63746 10.2965 4.426 10.2965 6.63076C10.2949 6.93743 10.3301 7.2432 10.4012 7.54151C8.79302 7.46612 7.2183 7.05588 5.77777 6.33703C4.33723 5.61819 3.06261 4.60656 2.03544 3.36688C1.67509 3.97438 1.48451 4.66751 1.48363 5.37384C1.48363 6.75851 2.20606 7.98247 3.2969 8.69953C2.65061 8.68419 2.01755 8.51313 1.45149 8.20088V8.25033C1.45149 10.1872 2.85265 11.7986 4.70712 12.1653C4.35839 12.2583 3.99903 12.3054 3.63812 12.3055C3.38203 12.3059 3.12652 12.2811 2.87531 12.2313C3.39086 13.8179 4.89134 14.9718 6.66875 15.0047C5.22447 16.1178 3.45128 16.7194 1.62787 16.715C1.30421 16.7145 0.980852 16.6952 0.659424 16.6573C2.51438 17.8418 4.67063 18.4683 6.8715 18.4623C14.3454 18.4623 18.4286 12.3755 18.4286 7.09644C18.4286 6.92336 18.4241 6.75027 18.4158 6.58131C19.2083 6.01757 19.894 5.31701 20.4405 4.51254Z" fill="white"/>
</svg>
