<svg width="22" height="22" viewBox="0 0 22 22" fill="none" xmlns="http://www.w3.org/2000/svg">
<path d="M18.3045 1.60791H2.89627C2.05433 1.60791 1.31873 2.21371 1.31873 3.04575V18.4882C1.31873 19.3247 2.05433 20.0702 2.89627 20.0702H18.2999C19.1464 20.0702 19.781 19.3198 19.781 18.4882V3.04575C19.786 2.21371 19.1464 1.60791 18.3045 1.60791ZM7.04163 16.9972H4.39674V8.7736H7.04163V16.9972ZM5.81067 7.52327H5.79172C4.94525 7.52327 4.39715 6.89316 4.39715 6.10439C4.39715 5.3012 4.95968 4.68593 5.8251 4.68593C6.69052 4.68593 7.22008 5.29667 7.23903 6.10439C7.23862 6.89316 6.69052 7.52327 5.81067 7.52327ZM16.708 16.9972H14.0631V12.5007C14.0631 11.4234 13.6782 10.6874 12.7213 10.6874C11.9902 10.6874 11.5575 11.1819 11.365 11.6637C11.2929 11.8368 11.2735 12.0725 11.2735 12.3132V16.9972H8.62865V8.7736H11.2735V9.91802C11.6585 9.36992 12.2597 8.58115 13.6588 8.58115C15.395 8.58115 16.7084 9.72556 16.7084 12.1928L16.708 16.9972Z" fill="white"/>
</svg>
