<svg width="206" height="46" viewBox="0 0 206 46" fill="none" xmlns="http://www.w3.org/2000/svg">
<path d="M0.435059 8.58804L8.90074 0.307617L13.5097 5.02325L9.66142 8.78734L31.1568 31.6974L35.1371 5.37692L39.1285 31.776L61.205 8.66664L57.6851 4.9222L62.4933 0.408671L70.2882 8.70594L35.1006 45.5384L0.435059 8.58804Z" fill="#140F2D"/>
<path d="M77.791 10.2441H86.2932L89.0159 26.7039H89.7429L93.3723 10.2441H100.03L103.66 26.7039H104.387L107.109 10.2441H115.611L110.68 35.6608H99.365L97.0662 23.4367H96.3392L94.0403 35.6608H82.7228L77.791 10.2441Z" fill="#D72638"/>
<path d="M133.101 32.3008H122.211L121.088 35.6691H112.437L121.787 10.2524H133.525L142.875 35.6691H134.221L133.101 32.3008ZM131.044 26.0975L128.38 18.1118H126.929L124.268 26.0975H131.044Z" fill="#D72638"/>
<path d="M162.268 35.6608L158.818 29.0983H152.466V35.6636H144.085V10.2441H158.639C165.687 10.2441 169.65 13.27 169.65 19.9561C169.65 23.3749 168.109 25.7973 165.959 27.3102L170.498 35.6608H162.268ZM152.466 22.8304H158.063C160.18 22.8304 161.272 21.8031 161.272 20.0235C161.272 18.2439 160.18 17.2165 158.063 17.2165H152.466V22.8304Z" fill="#D72638"/>
<path d="M172.163 10.2441H180.544V35.6608H172.163V10.2441Z" fill="#D72638"/>
<path d="M182.663 10.2441H205.565V16.9611H191.042V20.2003H205.02V25.7047H191.042V28.9439H205.565V35.6608H182.663V10.2441Z" fill="#D72638"/>
</svg>
