<svg width="48" height="48" viewBox="0 0 48 48" fill="none" xmlns="http://www.w3.org/2000/svg">
<rect width="48" height="48" rx="16" fill="#FDEFE7"/>
<path d="M34 17.15V19.85C34 22.1 33.1 23 30.85 23H28.15C25.9 23 25 22.1 25 19.85V17.15C25 14.9 25.9 14 28.15 14H30.85C33.1 14 34 14.9 34 17.15Z" stroke="url(#paint0_linear_77_2933)" stroke-width="1.5" stroke-linecap="round" stroke-linejoin="round"/>
<path d="M23 28.15V30.85C23 33.1 22.1 34 19.85 34H17.15C14.9 34 14 33.1 14 30.85V28.15C14 25.9 14.9 25 17.15 25H19.85C22.1 25 23 25.9 23 28.15Z" stroke="url(#paint1_linear_77_2933)" stroke-width="1.5" stroke-linecap="round" stroke-linejoin="round"/>
<path d="M29.38 23V25.62C29.38 28.31 28.31 29.38 25.62 29.38H23V28.15C23 25.9 22.1 25 19.85 25H18.62V22.38C18.62 19.69 19.69 18.62 22.38 18.62H25V19.85C25 22.1 25.9 23 28.15 23H29.38Z" stroke="url(#paint2_linear_77_2933)" stroke-width="1.5" stroke-linecap="round" stroke-linejoin="round"/>
<defs>
<linearGradient id="paint0_linear_77_2933" x1="22.9517" y1="14" x2="34.2091" y2="14.9959" gradientUnits="userSpaceOnUse">
<stop stop-color="#EA5B0C"/>
<stop offset="1" stop-color="#E71D73"/>
</linearGradient>
<linearGradient id="paint1_linear_77_2933" x1="11.9517" y1="25" x2="23.2091" y2="25.9959" gradientUnits="userSpaceOnUse">
<stop stop-color="#EA5B0C"/>
<stop offset="1" stop-color="#E71D73"/>
</linearGradient>
<linearGradient id="paint2_linear_77_2933" x1="16.1712" y1="18.62" x2="29.63" y2="19.8107" gradientUnits="userSpaceOnUse">
<stop stop-color="#EA5B0C"/>
<stop offset="1" stop-color="#E71D73"/>
</linearGradient>
</defs>
</svg>
