<svg width="48" height="48" viewBox="0 0 48 48" fill="none" xmlns="http://www.w3.org/2000/svg">
<rect width="48" height="48" rx="16" fill="#FDEFE7"/>
<path d="M21.6 32H26.4C30.4 32 32 30.4 32 26.4V21.6C32 17.6 30.4 16 26.4 16H21.6C17.6 16 16 17.6 16 21.6V26.4C16 30.4 17.6 32 21.6 32Z" stroke="url(#paint0_linear_77_2955)" stroke-width="1.5" stroke-linecap="round" stroke-linejoin="round"/>
<path d="M22.5 29H25.5C28 29 29 28 29 25.5V22.5C29 20 28 19 25.5 19H22.5C20 19 19 20 19 22.5V25.5C19 28 20 29 22.5 29Z" stroke="url(#paint1_linear_77_2955)" stroke-width="1.5" stroke-linecap="round" stroke-linejoin="round"/>
<path d="M20.01 16V14" stroke="url(#paint2_linear_77_2955)" stroke-width="1.5" stroke-linecap="round" stroke-linejoin="round"/>
<path d="M24 16V14" stroke="url(#paint3_linear_77_2955)" stroke-width="1.5" stroke-linecap="round" stroke-linejoin="round"/>
<path d="M28 16V14" stroke="url(#paint4_linear_77_2955)" stroke-width="1.5" stroke-linecap="round" stroke-linejoin="round"/>
<path d="M32 20H34" stroke="url(#paint5_linear_77_2955)" stroke-width="1.5" stroke-linecap="round" stroke-linejoin="round"/>
<path d="M32 24H34" stroke="url(#paint6_linear_77_2955)" stroke-width="1.5" stroke-linecap="round" stroke-linejoin="round"/>
<path d="M32 28H34" stroke="url(#paint7_linear_77_2955)" stroke-width="1.5" stroke-linecap="round" stroke-linejoin="round"/>
<path d="M28 32V34" stroke="url(#paint8_linear_77_2955)" stroke-width="1.5" stroke-linecap="round" stroke-linejoin="round"/>
<path d="M24.01 32V34" stroke="url(#paint9_linear_77_2955)" stroke-width="1.5" stroke-linecap="round" stroke-linejoin="round"/>
<path d="M20.01 32V34" stroke="url(#paint10_linear_77_2955)" stroke-width="1.5" stroke-linecap="round" stroke-linejoin="round"/>
<path d="M14 20H16" stroke="url(#paint11_linear_77_2955)" stroke-width="1.5" stroke-linecap="round" stroke-linejoin="round"/>
<path d="M14 24H16" stroke="url(#paint12_linear_77_2955)" stroke-width="1.5" stroke-linecap="round" stroke-linejoin="round"/>
<path d="M14 28H16" stroke="url(#paint13_linear_77_2955)" stroke-width="1.5" stroke-linecap="round" stroke-linejoin="round"/>
<defs>
<linearGradient id="paint0_linear_77_2955" x1="12.3586" y1="16" x2="32.3718" y2="17.7705" gradientUnits="userSpaceOnUse">
<stop stop-color="#EA5B0C"/>
<stop offset="1" stop-color="#E71D73"/>
</linearGradient>
<linearGradient id="paint1_linear_77_2955" x1="16.7241" y1="19" x2="29.2324" y2="20.1066" gradientUnits="userSpaceOnUse">
<stop stop-color="#EA5B0C"/>
<stop offset="1" stop-color="#E71D73"/>
</linearGradient>
<linearGradient id="paint2_linear_77_2955" x1="19.7824" y1="14" x2="21.0406" y2="14.0557" gradientUnits="userSpaceOnUse">
<stop stop-color="#EA5B0C"/>
<stop offset="1" stop-color="#E71D73"/>
</linearGradient>
<linearGradient id="paint3_linear_77_2955" x1="23.7724" y1="14" x2="25.0306" y2="14.0557" gradientUnits="userSpaceOnUse">
<stop stop-color="#EA5B0C"/>
<stop offset="1" stop-color="#E71D73"/>
</linearGradient>
<linearGradient id="paint4_linear_77_2955" x1="27.7724" y1="14" x2="29.0306" y2="14.0557" gradientUnits="userSpaceOnUse">
<stop stop-color="#EA5B0C"/>
<stop offset="1" stop-color="#E71D73"/>
</linearGradient>
<linearGradient id="paint5_linear_77_2955" x1="31.5448" y1="20" x2="33.9895" y2="20.4326" gradientUnits="userSpaceOnUse">
<stop stop-color="#EA5B0C"/>
<stop offset="1" stop-color="#E71D73"/>
</linearGradient>
<linearGradient id="paint6_linear_77_2955" x1="31.5448" y1="24" x2="33.9895" y2="24.4326" gradientUnits="userSpaceOnUse">
<stop stop-color="#EA5B0C"/>
<stop offset="1" stop-color="#E71D73"/>
</linearGradient>
<linearGradient id="paint7_linear_77_2955" x1="31.5448" y1="28" x2="33.9895" y2="28.4326" gradientUnits="userSpaceOnUse">
<stop stop-color="#EA5B0C"/>
<stop offset="1" stop-color="#E71D73"/>
</linearGradient>
<linearGradient id="paint8_linear_77_2955" x1="27.7724" y1="32" x2="29.0306" y2="32.0557" gradientUnits="userSpaceOnUse">
<stop stop-color="#EA5B0C"/>
<stop offset="1" stop-color="#E71D73"/>
</linearGradient>
<linearGradient id="paint9_linear_77_2955" x1="23.7824" y1="32" x2="25.0406" y2="32.0557" gradientUnits="userSpaceOnUse">
<stop stop-color="#EA5B0C"/>
<stop offset="1" stop-color="#E71D73"/>
</linearGradient>
<linearGradient id="paint10_linear_77_2955" x1="19.7824" y1="32" x2="21.0406" y2="32.0557" gradientUnits="userSpaceOnUse">
<stop stop-color="#EA5B0C"/>
<stop offset="1" stop-color="#E71D73"/>
</linearGradient>
<linearGradient id="paint11_linear_77_2955" x1="13.5448" y1="20" x2="15.9895" y2="20.4326" gradientUnits="userSpaceOnUse">
<stop stop-color="#EA5B0C"/>
<stop offset="1" stop-color="#E71D73"/>
</linearGradient>
<linearGradient id="paint12_linear_77_2955" x1="13.5448" y1="24" x2="15.9895" y2="24.4326" gradientUnits="userSpaceOnUse">
<stop stop-color="#EA5B0C"/>
<stop offset="1" stop-color="#E71D73"/>
</linearGradient>
<linearGradient id="paint13_linear_77_2955" x1="13.5448" y1="28" x2="15.9895" y2="28.4326" gradientUnits="userSpaceOnUse">
<stop stop-color="#EA5B0C"/>
<stop offset="1" stop-color="#E71D73"/>
</linearGradient>
</defs>
</svg>
